# xmcd
#
# Track frame offsets:
#	150
#	7650
#	32693
#	77033
#	99523
#	135068
#	153838
#	175968
#	196610
#	214858
#
# Disc length: 3284 seconds
#
# Revision: 4
# Processed by: cddbd v1.5.2PL0 Copyright (c) Steve Scherf et al.
# Submitted via: audiograbber 1.83.01
#
DISCID=660cd20a
DTITLE=Kadison, Joshua - Delilah Blue
DYEAR=1995
DGENRE=Rock
TTITLE0=Listen to the lambs
TTITLE1=The gospel according to my ol' man
TTITLE2=Delilah Blue
TTITLE3=Waiting in green velvet
TTITLE4=Jus' like Brigitte Bardot
TTITLE5=The song on Neffertiti's radio (My love)
TTITLE6=Amsterdam
TTITLE7=Rosie and Pauly
TTITLE8=Take it on faith
TTITLE9=The pearl
EXTD=
EXTT0=
EXTT1=
EXTT2=
EXTT3=
EXTT4=
EXTT5=
EXTT6=
EXTT7=
EXTT8=
EXTT9=
PLAYORDER=
